<?xml version="1.0" encoding="UTF-8"?>
<svg xmlns="http://www.w3.org/2000/svg" xmlns:xlink="http://www.w3.org/1999/xlink" width="50pt" height="50pt" viewBox="0 0 50 50" version="1.1">
<g id="surface1">
<path style=" stroke:none;fill-rule:nonzero;fill:rgb(35.686275%,35.686275%,35.686275%);fill-opacity:1;" d="M 15 2 C 7.832031 2 2 7.832031 2 15 L 2 35 C 2 42.167969 7.832031 48 15 48 L 35 48 C 42.167969 48 48 42.167969 48 35 L 48 15 C 48 7.832031 42.167969 2 35 2 Z M 38 10 C 39.105469 10 40 10.894531 40 12 C 40 13.105469 39.105469 14 38 14 C 36.894531 14 36 13.105469 36 12 C 36 10.894531 36.894531 10 38 10 Z M 25 13 C 31.617188 13 37 18.382813 37 25 C 37 31.617188 31.617188 37 25 37 C 18.382813 37 13 31.617188 13 25 C 13 18.382813 18.382813 13 25 13 Z M 25 15 C 19.484375 15 15 19.484375 15 25 C 15 30.515625 19.484375 35 25 35 C 30.515625 35 35 30.515625 35 25 C 35 19.484375 30.515625 15 25 15 Z "/>
</g>
</svg>
